<svg width="50" height="50" viewBox="0 0 50 50" fill="none" xmlns="http://www.w3.org/2000/svg">
<g id="Frame 24">
<circle id="Ellipse 19" cx="25" cy="25" r="25" fill="#00ABFF"/>
<path id="Rectangle 102" d="M14.3319 16.2536C14.4838 15.874 14.8515 15.625 15.2604 15.625H41.0213C41.7809 15.625 42.2632 16.4386 41.8985 17.105L40.143 20.3133C39.9676 20.634 39.6312 20.8333 39.2657 20.8333H13.977C13.2696 20.8333 12.7858 20.1188 13.0486 19.4619L14.3319 16.2536Z" fill="white"/>
<path id="Rectangle 103" d="M13.0398 23.429C13.2165 23.1127 13.5505 22.9167 13.9128 22.9167H36.9098C37.6565 22.9167 38.1398 23.7053 37.8008 24.3706L36.1664 27.5789C35.9957 27.914 35.6514 28.125 35.2754 28.125H12.1206C11.3571 28.125 10.8752 27.3039 11.2476 26.6373L13.0398 23.429Z" fill="white"/>
<path id="Rectangle 104" d="M9.0837 30.6938C9.26442 30.3926 9.58993 30.2083 9.94119 30.2083H34.7713C35.5309 30.2083 36.0132 31.0219 35.6485 31.6883L33.893 34.8967C33.7176 35.2173 33.3812 35.4167 33.0157 35.4167H8.01619C7.2389 35.4167 6.75878 34.5687 7.1587 33.9022L9.0837 30.6938Z" fill="white"/>
</g>
</svg>
